<?xml version="1.0" encoding="utf-8"?>
<!-- Generator: Adobe Illustrator 17.0.0, SVG Export Plug-In . SVG Version: 6.00 Build 0)  -->
<!DOCTYPE svg PUBLIC "-//W3C//DTD SVG 1.1//EN" "http://www.w3.org/Graphics/SVG/1.1/DTD/svg11.dtd">
<svg version="1.1" id="Layer_1" xmlns="http://www.w3.org/2000/svg" xmlns:xlink="http://www.w3.org/1999/xlink" x="0px" y="0px"
	 width="200px" height="112.5px" viewBox="860 483.75 200 112.5" enable-background="new 860 483.75 200 112.5"
	 xml:space="preserve">
<title>Artboard 30</title>
<g>
	<path d="M959.895,505.237c-1.202,0-2.179,0.97-2.188,2.172l0,0v2.655h4.361v-2.703
		C962.033,506.184,961.073,505.245,959.895,505.237 M955.664,505.511c0-0.434-0.241-0.772-0.515-0.772
		c-0.274,0-0.531,0.338-0.531,0.772s0.241,0.788,0.531,0.788S955.664,505.945,955.664,505.511 M956.983,510.064l-1.609-3.218h-0.531
		l-1.609,3.218H956.983z M967.2,508.632v1.432h2.977v-2.896c-0.322-0.25-0.718-0.386-1.126-0.386
		C968.033,506.791,967.209,507.614,967.2,508.632 M965.141,505.414c0-0.434-0.225-0.772-0.499-0.772s-0.531,0.338-0.531,0.772
		s0.225,0.772,0.531,0.772S965.141,505.833,965.141,505.414 M950.659,506.187h0.531c-0.011-0.598,0.214-1.176,0.628-1.609
		c0.505-0.572,1.125-1.033,1.818-1.352c1.023-0.483,2.105-0.829,3.218-1.03v3.781h0.531c0.455-0.75,1.248-1.231,2.124-1.287v-0.145
		c-0.216-0.204-0.333-0.492-0.322-0.788c0-0.499,0.29-0.901,0.66-0.901c0.37,0,0.644,0.402,0.644,0.901
		c0.011,0.297-0.106,0.584-0.322,0.788v0.145c0.868,0.106,1.631,0.628,2.044,1.4h0.515v-3.781c1.114,0.198,2.196,0.544,3.218,1.03
		c0.694,0.319,1.313,0.779,1.818,1.352c0.413,0.434,0.644,1.01,0.644,1.609h0.515c0.29,0,0.515-0.354,0.515-0.772
		s-0.225-0.772-0.515-0.772c-0.15,0.006-0.287,0.084-0.37,0.209c-0.577-0.899-1.405-1.609-2.381-2.043
		c-2.019-0.918-4.219-1.369-6.436-1.319c-2.217-0.049-4.417,0.402-6.436,1.319c-0.976,0.434-1.804,1.144-2.381,2.043
		c-0.077-0.133-0.216-0.218-0.37-0.225c-0.29,0-0.515,0.338-0.515,0.772s0.225,0.788,0.515,0.788 M952.397,508.665
		c-0.002-1.022-0.832-1.849-1.854-1.847c-0.406,0.001-0.8,0.135-1.122,0.382v2.864h2.977V508.665z M966.299,510.097l-1.609-3.218
		h-0.354l-1.609,3.218H966.299z M957.466,499.686c0.048,0.115,0.119,0.219,0.209,0.306l1.126-0.483l0.579,1.352
		c0.055,0.136,0.192,0.22,0.338,0.209c0.195,0,0.354-0.158,0.354-0.354l0,0c0.017-0.047,0.017-0.098,0-0.145l-0.595-1.352
		l1.126-0.483c-0.006-0.127-0.033-0.252-0.08-0.37c-0.054-0.112-0.125-0.215-0.209-0.306l-1.11,0.483l-0.499-1.11
		c-0.122,0.005-0.242,0.033-0.354,0.08c-0.112,0.054-0.215,0.125-0.306,0.209l0.483,1.11l-1.11,0.499
		c0.007,0.122,0.034,0.241,0.08,0.354 M943.676,541.344c-0.502,0.018-0.99,0.168-1.416,0.434c-1.062,0.628-3.588,2.06-3.588,2.06
		c0-3.427,2.285-4.924,3.524-6.597c0.557-0.692,0.447-1.705-0.245-2.262c-0.079-0.064-0.164-0.12-0.254-0.167l-5.326-3.073
		c-0.66,0.763-1.173,1.641-1.513,2.591l1.48,0.853l-2.06,1.191l2.784,1.609c0.315,0.182,0.423,0.586,0.241,0.901
		c-0.058,0.1-0.141,0.183-0.241,0.241l-1.834,1.062c1.196,1.23,1.786,2.927,1.609,4.634v1.512c0.755-0.725,1.74-1.163,2.784-1.239
		c0.901-0.086,1.755,0.413,2.124,1.239c0.5-0.521,0.622-1.298,0.306-1.947c0.805-0.015,1.527,0.493,1.786,1.255
		c0.196-0.261,0.308-0.575,0.322-0.901c0.001-0.58-0.259-1.129-0.708-1.496c0.853-0.281,1.787,0.075,2.237,0.853
		c0.018-0.198,0.018-0.397,0-0.595c0.092-1.098-0.724-2.063-1.822-2.155c-0.106-0.009-0.212-0.009-0.318-0.001 M951.673,512.044
		c0.009-0.24,0.21-0.427,0.45-0.418c0,0,0,0,0.001,0h2.011c0.231-0.009,0.425,0.171,0.434,0.402c0,0.005,0,0.011,0,0.016v1.126
		h3.009v-0.66c0-0.782,0.634-1.416,1.416-1.416l0,0h1.609c0.782,0,1.416,0.634,1.416,1.416l0,0v0.66h3.009v-1.126
		c0-0.231,0.187-0.418,0.418-0.419c0.005,0,0.011,0,0.016,0h2.092c0.24-0.009,0.441,0.178,0.451,0.418c0,0,0,0,0,0.001v1.126h2.928
		v-1.496h-0.724v-1.046h-20.612v1.046h-0.724v1.609h2.928L951.673,512.044z M971.867,518.399c0.258-0.183,0.568-0.279,0.885-0.274
		c0.718-0.053,1.343,0.485,1.397,1.203c0.002,0.023,0.003,0.046,0.003,0.068c-0.041,0.632-0.258,1.24-0.628,1.754h2.14l1.609,2.124
		c0.566-0.83,1.301-1.532,2.156-2.06l-3.717-1.319c0.406-1.006,0.703-2.052,0.885-3.122c0.082-0.751-0.46-1.426-1.211-1.508
		c-0.084-0.009-0.169-0.011-0.253-0.004c0.325,0.487,0.325,1.122,0,1.609c-0.187-0.916-0.98-1.583-1.915-1.609
		c-0.49-0.004-0.952,0.23-1.239,0.628c0.848-0.052,1.636,0.439,1.963,1.223c-0.215-0.058-0.437-0.085-0.66-0.08
		c-0.72-0.001-1.304,0.582-1.305,1.302c0,0.022,0.001,0.044,0.002,0.066 M949.598,514.473h20.58v-0.772h-20.58V514.473z
		 M938.817,515.455L938.817,515.455h0.547c1.239,0,1.609,0.434,2.301,0.434c0.489-0.009,0.878-0.412,0.869-0.9
		c-0.002-0.093-0.018-0.186-0.049-0.274c-0.222,0.255-0.547,0.397-0.885,0.386c-0.547,0-0.917-0.177-1.48-0.177
		c-0.482-0.005-0.948,0.173-1.303,0.499 M940.201,521.231c0.892,0.493,1.662,1.181,2.253,2.011l1.513-2.092h2.156
		c-0.383-0.508-0.607-1.118-0.644-1.754c0.016-0.72,0.612-1.29,1.332-1.274c0.023,0.001,0.046,0.002,0.068,0.003
		c0.316-0.004,0.626,0.092,0.885,0.274c0.036-0.719-0.518-1.331-1.237-1.366c-0.022-0.001-0.044-0.002-0.066-0.002
		c-0.223-0.003-0.444,0.024-0.66,0.08c0.327-0.784,1.115-1.275,1.963-1.223c-0.287-0.398-0.749-0.632-1.239-0.628
		c-0.935,0.026-1.728,0.693-1.915,1.609c-0.317-0.49-0.317-1.12,0-1.609c-0.753-0.058-1.411,0.506-1.468,1.259
		c-0.006,0.084-0.005,0.169,0.004,0.253c0.182,1.069,0.479,2.116,0.885,3.122L940.201,521.231z M975.278,540.379
		c1.145-0.027,2.259-0.373,3.218-0.998l-0.579-0.644c-0.808,0.517-1.744,0.796-2.703,0.805c-0.708,0-1.142-0.386-1.142-0.933
		s0.451-0.965,1.142-0.965c-0.149-0.577-0.675-0.977-1.271-0.965c-0.889,0-1.609,0.72-1.609,1.609
		C972.382,539.462,973.363,540.379,975.278,540.379z M978.142,515.648c0.708,0,1.046-0.434,2.285-0.434h0.547l0,0
		c-0.355-0.326-0.821-0.504-1.303-0.499c-0.547,0-0.933,0.161-1.464,0.161c-0.341,0.017-0.671-0.118-0.901-0.37
		c-0.16,0.462,0.085,0.966,0.547,1.126c0.093,0.032,0.191,0.049,0.29,0.049 M982.712,538.013l2.784-1.609l-2.06-1.191l1.48-0.853
		c-0.34-0.95-0.853-1.828-1.513-2.591l-5.31,3.073c-0.788,0.411-1.094,1.382-0.683,2.171c0.048,0.092,0.104,0.178,0.169,0.259
		c1.239,1.609,3.524,3.218,3.524,6.597l-3.588-2.06c-0.426-0.266-0.914-0.416-1.416-0.434c-1.091-0.074-2.035,0.75-2.109,1.84
		c-0.006,0.094-0.006,0.189,0.001,0.284c-0.025,0.198-0.025,0.398,0,0.595c0.446-0.783,1.383-1.14,2.237-0.853
		c-0.454,0.363-0.716,0.915-0.708,1.496c0.009,0.324,0.115,0.638,0.306,0.901c0.273-0.759,0.996-1.262,1.802-1.255
		c-0.321,0.646-0.205,1.423,0.29,1.947c0.365-0.829,1.222-1.33,2.124-1.239c1.044,0.076,2.029,0.514,2.784,1.239v-1.513
		c-0.176-1.707,0.413-3.404,1.609-4.634l-1.834-1.062c-0.315-0.182-0.423-0.586-0.241-0.901c0.058-0.1,0.141-0.183,0.241-0.241
		 M982.696,515.455h-2.8c0.29,1.11,1.609,1.609,2.912,1.609c0.698,0.003,1.391-0.123,2.044-0.37c0.132-0.053,0.282,0.01,0.335,0.142
		c0.013,0.031,0.019,0.065,0.019,0.099c0,1.255-6.629,3.733-6.887,8.496l6.645-1.4c-0.07-0.219-0.108-0.446-0.113-0.676
		c0-3.395,3.99-5.632,3.99-9.027c0.044-0.843-0.245-1.669-0.805-2.301h-1.175c-0.257,0-0.386-0.08-0.386-0.274
		c0.991,0.065,1.946-0.385,2.526-1.191h-4.972c-1.609,0-2.349,0.66-2.349,1.207c-2.478,0-3.701,1.014-3.701,2.285h7.273
		c0,0.595-0.869,1.432-2.43,1.432 M982.679,512.977c-0.34,0-0.619-0.271-0.628-0.611c0.618-0.459,1.37-0.702,2.14-0.692
		c-0.238,0.704-0.869,1.202-1.609,1.271 M959.895,529.469c-3.878,0-3.878,1.319-7.723,1.319c-1.383,0.069-2.742-0.378-3.813-1.255
		c0.499,9.477,4.618,14.787,11.537,18.778c6.903-3.99,11.022-9.284,11.521-18.778c-1.065,0.877-2.419,1.325-3.797,1.255
		C963.757,530.789,963.757,529.469,959.895,529.469 M964.964,540.041h-2.237v-2.478c-0.252-0.181-0.56-0.267-0.869-0.241
		c-0.31-0.03-0.619,0.056-0.869,0.241v2.478h-2.22v-2.478c-0.529-0.34-1.208-0.34-1.738,0v2.478h-2.22v-6.806
		c0.705-0.322,1.515-0.322,2.22,0v2.478h1.738v-2.478c0.348-0.176,0.736-0.259,1.126-0.241c0.385-0.02,0.768,0.063,1.11,0.241v2.478
		h1.722v-2.478c0.705-0.322,1.515-0.322,2.22,0L964.964,540.041z M994.265,535.31c3.218,0,4.135-1.271,4.135-2.221
		s-1.142-1.883-3.105-1.883c-1.745,0.057-3.449,0.549-4.956,1.432l0,0c0.314,0.181,0.643,0.337,0.982,0.467
		c1.182-0.644,2.5-0.997,3.846-1.03c1.609,0,2.269,0.483,2.269,0.998s-1.094,1.255-2.912,1.255
		c-0.852,0.009-1.701-0.094-2.526-0.306c-3.151-0.644-5.343-3.516-5.133-6.726h0.322c0.165-0.016,0.318,0.084,0.37,0.241
		c0.177,0.547,0.338,1.062,0.386,1.239c0.579,1.738,1.513,2.333,2.558,2.494c-0.442-1.582-1.284-3.023-2.446-4.184l0.322-0.161
		c0.099-0.078,0.239-0.078,0.338,0l1.126,1.223c0.845,1.25,2.386,1.83,3.846,1.448c-1.21-1.479-2.785-2.616-4.57-3.299
		c0.094-0.089,0.18-0.186,0.257-0.29c0.089-0.11,0.239-0.149,0.37-0.097l1.947,0.869c1.574,0.973,3.591,0.851,5.036-0.306
		c-1.384-0.837-3.138-1.239-6.806-1.4c0-0.129,0-0.257,0.113-0.402c0.042-0.142,0.173-0.24,0.322-0.241h2.735
		c3.218,0,4.682-1.223,5.487-2.864c-1.963-0.257-4.167,0.161-8.431,1.867c0-0.161,0-0.306,0-0.483
		c-0.04-0.176,0.047-0.356,0.209-0.434l2.945-1.191c3.476-1.609,4.489-3.588,4.57-5.744c-2.285,0.676-4.457,2.204-8.287,6.163
		c-0.093-0.13-0.195-0.254-0.306-0.37c-0.148-0.165-0.148-0.414,0-0.579l2.301-2.687c2.784-3.105,2.896-5.616,2.011-7.852
		c-2.011,1.738-3.54,4.296-5.664,10.169c-0.202,0.523-0.076,1.117,0.322,1.513c0.791,0.767,0.81,2.03,0.043,2.821
		c-0.374,0.386-0.889,0.604-1.427,0.606c-0.683-0.012-1.316-0.361-1.69-0.933l-10.974,3.974v-1.448
		c0.142-1.272-0.773-2.418-2.045-2.56c-0.08-0.009-0.16-0.014-0.24-0.014c-0.51-0.022-1.016,0.095-1.464,0.338
		c0.042-0.571,0.466-1.041,1.03-1.142v-8.319h-23.235v8.319c0.567,0.1,0.996,0.569,1.046,1.142c-0.454-0.243-0.966-0.36-1.48-0.338
		c-1.28,0.01-2.309,1.055-2.299,2.335c0.001,0.08,0.005,0.16,0.014,0.24v1.448l-13.21-4.827c0,5.165-1.03,10.169-4.586,10.169
		c-1.447,0.064-2.672-1.058-2.735-2.505c-0.003-0.077-0.003-0.154,0-0.23v-0.032l0,0c0.059-1.421,1.259-2.524,2.68-2.465
		c0.019,0.001,0.037,0.002,0.056,0.003c0.401-0.002,0.799,0.069,1.175,0.209c-0.263-0.757-0.928-1.304-1.722-1.416
		c1.506-1.187,2.478-2.923,2.703-4.827c0.014-2.053-1.639-3.728-3.692-3.742c-0.094-0.001-0.188,0.002-0.283,0.009h-3.958
		c0.243,0.532,0.741,0.902,1.319,0.982c-0.671,0.622-1.045,1.499-1.03,2.414c-0.081,1.437,1.019,2.668,2.456,2.749
		c0.077,0.004,0.154,0.005,0.231,0.003c1.374,0.036,2.522-1.04,2.574-2.414c0-0.889-0.72-1.609-1.609-1.609
		c-0.824-0.064-1.544,0.551-1.608,1.375c0,0.003,0,0.006-0.001,0.008c0.949,0,1.464,0.467,1.464,1.046
		c-0.025,0.47-0.426,0.832-0.896,0.807c-0.012-0.001-0.025-0.002-0.037-0.003c-0.941-0.046-1.666-0.846-1.62-1.787
		c0.002-0.043,0.006-0.085,0.011-0.128c-0.008-1.369,1.094-2.485,2.463-2.493c0.096-0.001,0.193,0.004,0.289,0.015
		c1.456-0.054,2.681,1.083,2.735,2.539c0.002,0.06,0.002,0.12,0.001,0.18c0,3.218-5.358,4.698-5.358,8.608
		c-0.118,2.352,1.694,4.354,4.046,4.472c0.132,0.007,0.264,0.007,0.395,0.001v1.722c0,0.613-0.497,1.11-1.11,1.11
		c-0.005,0-0.011,0-0.016,0h-2.542c0,3.604-0.998,6.114-2.687,7.466h2.172c1.979,0,2.719,0.644,2.719,2.188
		c0.695-0.247,1.185-0.874,1.255-1.609c0.724,0.209,0.933,0.933,0.933,1.963c0.832-0.418,1.209-1.402,0.869-2.269
		c0.708,0,1.368,0.853,1.464,1.947c0.396-0.441,0.608-1.017,0.595-1.609c0.076-1.197-0.833-2.229-2.031-2.305
		c-0.155-0.01-0.31-0.003-0.463,0.02h-3.813c0-2.607,1.834-3.62,5.809-3.62h0.257c0.889,0,1.609-0.72,1.609-1.609v-0.788
		c-0.31-4.432,3.031-8.277,7.464-8.587c0.349-0.024,0.699-0.026,1.048-0.005c1.918,0.043,3.798,0.54,5.487,1.448
		c0-1.48,0.724-2.285,1.738-2.285c0.268-0.003,0.533,0.058,0.772,0.177c0-0.692-0.821-1.352-1.818-1.352
		c0.202-0.392,0.623-0.622,1.062-0.579c0.556,0.001,1.062,0.32,1.303,0.821c0.743,0.267,1.528,0.397,2.317,0.386
		c3.846,0,3.846-1.319,7.723-1.319c3.878,0,3.862,1.319,7.723,1.319c0.784,0.01,1.563-0.121,2.301-0.386
		c0.257-0.48,0.759-0.777,1.303-0.772c0.44-0.047,0.863,0.184,1.062,0.579c-0.998,0-1.818,0.66-1.818,1.352
		c0.245-0.12,0.515-0.18,0.788-0.177c0.998,0,1.722,0.805,1.722,2.285c1.716-0.91,3.625-1.395,5.567-1.416
		c4.435-0.269,8.248,3.109,8.517,7.544c0.021,0.349,0.02,0.699-0.005,1.048v0.821c-0.055,0.833,0.576,1.554,1.409,1.609
		c0.066,0.004,0.133,0.004,0.2,0h0.257c3.974,0,5.825,1.014,5.825,3.62h-3.958c-1.19-0.151-2.278,0.691-2.429,1.881
		c-0.014,0.107-0.019,0.215-0.017,0.324c-0.013,0.593,0.2,1.168,0.595,1.609c0.097-1.094,0.756-1.947,1.464-1.947
		c-0.34,0.867,0.036,1.851,0.869,2.269c0-1.03,0.209-1.754,0.933-1.963c0.067,0.731,0.55,1.357,1.239,1.609
		c0-1.609,0.74-2.188,2.735-2.188h2.172c-1.609-1.352-2.687-3.862-2.687-7.466h-2.558c-0.613,0-1.11-0.497-1.11-1.11v-1.963H994.265
		z M948.423,526.026c-0.428,0.003-0.85,0.096-1.239,0.273c0.06-0.639,0.615-1.115,1.255-1.078c0.785-0.098,1.5,0.459,1.598,1.244
		c0.008,0.068,0.012,0.136,0.011,0.204c-0.419-0.435-1.005-0.67-1.609-0.644 M962.92,524.514h-2.156v-2.478
		c-0.247-0.191-0.557-0.283-0.869-0.257c-0.312-0.03-0.624,0.062-0.869,0.257v2.51h-2.237v-4.344h1.979v-2.51
		c0.348-0.176,0.736-0.259,1.126-0.241c0.385-0.02,0.768,0.063,1.11,0.241v2.478h1.979L962.92,524.514z M971.287,526.026
		c-0.604-0.026-1.19,0.208-1.609,0.644c-0.015-0.791,0.614-1.444,1.405-1.459c0.068-0.001,0.137,0.002,0.204,0.011
		c0.64-0.037,1.195,0.439,1.255,1.078c-0.389-0.178-0.811-0.271-1.239-0.273 M930.16,518.785c0,0.145-0.145,0.547-0.145,0.547h1.738
		c-0.384,0.961-0.57,1.99-0.547,3.025v0.579l10.201,2.542c0-3.99-5.39-5.937-5.39-7.723c-0.049-0.28,0.139-0.547,0.419-0.595
		c0.058-0.01,0.118-0.01,0.176,0c0.483,0,1.046,0.257,1.69,0.257c0.933,0,1.384-0.676,1.609-1.609h-4.682
		c0-0.74,0.853-1.432,2.703-1.432h1.529c0.413,0.02,0.771-0.282,0.821-0.692l0.129-0.708l-0.499-0.08
		c-0.165-0.017-0.29-0.156-0.29-0.322h0.853l0.097-0.531l-2.623-0.467c0-0.386-0.434-0.965-2.349-0.965h-4.344
		c0.37,0.905,1.298,1.452,2.269,1.335c0,0.193-0.145,0.274-0.386,0.274h-0.74c-0.91,0.887-1.681,1.907-2.285,3.025l-0.322,0.547
		h1.786c-0.59,0.942-1.05,1.96-1.368,3.025 M937.739,512.381c-0.009,0.34-0.287,0.612-0.628,0.611
		c-0.71-0.098-1.303-0.591-1.529-1.271C936.354,511.702,937.111,511.933,937.739,512.381"/>
	<path d="M876.08,570.196v0.193c1.808,0.077,3.547,0.718,4.972,1.834c1.201,0.96,1.89,2.421,1.867,3.958
		c0.107,1.77-0.701,3.47-2.14,4.505c-1.686,1.047-3.648,1.563-5.632,1.48H862.5v-1.995l2.494-0.788v-16.895l-2.494-0.805v-1.995
		h11.617c1.933-0.076,3.849,0.386,5.535,1.336c1.395,0.819,2.224,2.342,2.156,3.958c0,2.687-1.899,4.425-5.728,5.197
		 M872.219,569.36c1.846,0.274,3.564-1.001,3.838-2.847c0.039-0.261,0.047-0.526,0.024-0.79c0-2.253-1.368-3.492-3.862-3.492h-1.336
		v7.128H872.219z M870.883,571.805v7.788h1.931c1.904,0.245,3.646-1.1,3.89-3.004c0.037-0.285,0.038-0.573,0.004-0.858
		c0.214-1.952-1.194-3.709-3.146-3.923c-0.248-0.027-0.499-0.028-0.747-0.003H870.883z"/>
	<path d="M886.813,561.685v-1.995h10.877v1.995l-2.623,0.805v12.036c0,3.218,1.722,5.02,4.602,5.02
		c2.664,0.104,4.908-1.971,5.012-4.635c0.009-0.236,0.001-0.473-0.024-0.707l-0.129-11.472l-2.832-1.11v-1.931h8.238v1.931
		l-2.398,1.11l-0.145,11.472c0.145,2.367-0.797,4.671-2.558,6.259c-1.857,1.469-4.184,2.213-6.549,2.092
		c-2.397,0.11-4.748-0.675-6.597-2.204c-1.714-1.688-2.612-4.035-2.462-6.436v-11.424L886.813,561.685z"/>
	<path d="M913.909,582.168v-1.995l2.494-0.788v-16.895l-2.494-0.805v-1.995h11.456c3.057-0.154,6.059,0.858,8.399,2.832
		c2.166,2.097,3.307,5.036,3.122,8.045c0.163,3.153-1.004,6.229-3.218,8.48c-2.251,2.105-5.256,3.213-8.335,3.073L913.909,582.168z
		 M924.094,579.641c1.912,0.073,3.73-0.83,4.827-2.397c1.272-1.957,1.891-4.266,1.77-6.597c0-5.439-2.494-8.415-6.581-8.415h-1.818
		v17.41H924.094z"/>
	<path d="M945.591,575.506l-1.336,3.62l3.041,1.11v1.931h-7.82v-1.931l1.85-1.11l7.369-19.437h4.908l7.418,19.695l1.85,0.788v1.995
		h-10.668v-1.995l2.494-0.788l-1.513-3.878H945.591z M952.301,572.964l-1.738-4.586l-1.142-3.218h-0.193l-1.11,3.218l-1.609,4.57
		L952.301,572.964z"/>
	<path fill="none" stroke="#000000" stroke-width="1.3275" stroke-miterlimit="10" d="M967.009,575.024h2.124l2.558,4.827
		c1.469,0.476,3.058,0.419,4.489-0.161c1.111-0.38,1.864-1.416,1.883-2.591c0-2.221-2.768-2.977-5.551-4.248
		c-1.908-0.7-3.547-1.983-4.682-3.669c-0.538-0.987-0.82-2.094-0.821-3.218c-0.063-1.898,0.816-3.706,2.349-4.827
		c1.712-1.233,3.78-1.872,5.889-1.818c2.49-0.047,4.96,0.447,7.241,1.448v5.229h-2.092l-2.397-4.135
		c-3.218-0.772-5.39,0.386-5.39,2.558c0,2.558,4.055,3.54,7.192,5.133c2.4,1.047,3.953,3.415,3.958,6.034
		c0.062,2.083-0.993,4.04-2.768,5.133c-2.054,1.3-4.458,1.94-6.887,1.834c-2.469-0.042-4.896-0.647-7.096-1.77V575.024z"/>
	<polygon fill="none" stroke="#000000" stroke-width="1.3275" stroke-miterlimit="10" points="1057.5,559.689 1057.5,566.656 
		1055.408,566.656 1053.349,562.232 1049.97,562.232 1049.97,579.384 1053.091,580.172 1053.091,582.168 1040.943,582.168 
		1040.943,580.172 1044.081,579.384 1044.081,562.232 1040.686,562.232 1038.642,566.656 1036.55,566.656 1036.55,559.689 	"/>
	<polygon fill="none" stroke="#000000" stroke-width="1.3275" stroke-miterlimit="10" points="1009.739,559.682 1009.739,566.649 
		1007.647,566.649 1005.588,562.224 1002.209,562.224 1002.209,579.376 1005.33,580.165 1005.33,582.16 993.182,582.16 
		993.182,580.165 996.32,579.376 996.32,562.224 992.924,562.224 990.881,566.649 988.789,566.649 988.789,559.682 	"/>
	<path fill="none" stroke="#000000" stroke-width="1.3275" stroke-miterlimit="10" d="M1017.561,575.499l-1.336,3.62l3.041,1.11
		v1.931h-7.82v-1.931l1.85-1.11l7.369-19.437h4.908l7.418,19.695l1.85,0.788v1.995h-10.668v-1.995l2.494-0.788l-1.513-3.878
		H1017.561z M1024.271,572.956l-1.738-4.586l-1.142-3.218h-0.193l-1.11,3.218l-1.609,4.57L1024.271,572.956z"/>
</g>
</svg>
